<svg width="1108" height="1107" viewBox="0 0 1108 1107" fill="none" xmlns="http://www.w3.org/2000/svg">
<circle cx="554.5" cy="553.5" r="553.5" fill="#3A74FF"/>
<path d="M653.175 528.978L890.768 757L902.395 752.955L834.15 573.47L879.141 536.056C910.483 486.003 853.36 472.857 841.733 481.958C830.106 491.059 805.841 511.282 805.841 511.282L779.554 441.51L917.56 320.168C951.721 262.109 919.031 205.377 839.205 228.151L698.671 331.291L575.325 320.168L592.513 298.933C596.739 276.535 587.969 252.001 548.027 256.464L482.31 311.068L251.794 291.35L225.001 314.101L548.027 441.51L383.228 567.403L251.794 528.978L234.606 542.629L376.151 681.667C497.624 644.285 556.85 608.455 653.175 528.978Z" fill="white"/>
<path d="M684.428 634.326C492.777 848.347 334.407 912.807 125 902.5C143.5 928.5 174.5 955.5 194 973.5C361.303 961.02 447.224 918.715 591.768 819.244C483.01 942.803 414.792 980.056 233.5 1004.5C274 1033.5 309 1050 337 1062.5C550.48 995.58 703.41 861.493 726.501 645.852C722.059 620.891 699.649 620.038 684.428 634.326Z" fill="white"/>
<path d="M363.501 735.759C250.575 778.333 169.068 796.292 43.5 766C56 797 70 820.5 79.0015 836.5C209.076 848.7 277.481 839.789 384.001 779.259C397.495 765.381 399.033 757.609 392.501 743.759C385.797 734.699 380.39 731.737 363.501 735.759Z" fill="white"/>
<path d="M377.001 681.5L343.001 649.5C208.93 678.975 107.173 671.096 25.1668 646C17.5 641 6.07364 629.5 5.00098 615C6.5 642.5 14.5 675 18.5 693C169.839 721.686 233.085 718.224 377.001 681.5Z" fill="white"/>
<path d="M180.382 639C78.8572 634.827 44.1339 625.693 5.00104 603L4.97223 602.76C3.44939 590.082 -0.487136 557.31 1.50042 527.5C10.2397 562.185 69.1414 575.854 183.6 594.5C196.941 600.932 200.515 602.796 200.763 618C199.003 627.976 192.708 634.655 180.382 639Z" fill="white"/>
</svg>
